<svg width="15" height="15" viewBox="0 0 15 15" fill="none" xmlns="http://www.w3.org/2000/svg">
<path d="M5.65093 0.0321369C4.20409 0.181616 2.86561 0.820564 1.82588 1.85812C1.10539 2.57914 0.619202 3.36464 0.308747 4.3084C-0.104218 5.56285 -0.104218 6.8642 0.308747 8.11865C0.619202 9.06535 1.10832 9.85377 1.83174 10.5719C3.261 11.9934 5.20867 12.6382 7.21785 12.3539C8.25172 12.2073 9.28853 11.7823 10.1027 11.1698C10.1906 11.1024 10.2697 11.0525 10.2814 11.0555C10.2931 11.0613 11.1806 11.9289 12.2525 12.984C13.4738 14.1857 14.2441 14.9214 14.3144 14.9536C14.6014 15.0885 14.9236 14.9185 14.9822 14.6019C15.029 14.3557 15.193 14.5316 11.983 11.3603L10.9814 10.3696L11.1513 10.1703C11.8835 9.32327 12.3667 8.25054 12.5512 7.07816C12.6215 6.62093 12.6215 5.78267 12.5512 5.31958C12.3433 3.97427 11.7546 2.81948 10.7734 1.84347C9.42618 0.504021 7.54881 -0.161306 5.65093 0.0321369ZM7.05383 1.01401C8.23708 1.18693 9.27681 1.70278 10.0998 2.52345C11.1073 3.53463 11.6316 4.79201 11.6316 6.21353C11.6316 6.73817 11.5847 7.09867 11.4617 7.55297C10.8408 9.86257 8.73498 11.4599 6.30991 11.4599C4.866 11.4599 3.5246 10.9118 2.52294 9.90946C1.84345 9.22948 1.38948 8.44398 1.14346 7.53246C0.926729 6.72058 0.926729 5.70647 1.14346 4.8946C1.63551 3.05982 3.09113 1.61485 4.92751 1.14004C5.59528 0.967112 6.41242 0.917286 7.05383 1.01401Z" fill="black"/>
</svg>
