<svg width="44" height="40" viewBox="0 0 44 40" fill="none" xmlns="http://www.w3.org/2000/svg">
<path d="M11.3265 39.8086C5.72342 38.7687 1.6328 33.8961 1.6328 28.25C1.6328 24.5977 3.39452 21.0656 6.29061 18.9C6.70311 18.5906 7.04686 18.3156 7.04686 18.2898C7.04686 18.2555 6.8492 17.9633 6.60858 17.6367C6.04139 16.8633 5.31092 15.3594 5.03592 14.3797C4.91561 13.9672 4.81248 13.5719 4.81248 13.5031C4.81248 13.4344 4.7867 13.3828 4.76092 13.3828C4.73514 13.3828 4.08202 13.8125 3.32577 14.3367C2.56093 14.8609 1.82186 15.3336 1.69296 15.3766C1.40077 15.4883 0.919521 15.4195 0.627334 15.2305C0.11171 14.8867 -0.0773525 14.0359 0.240616 13.5117C0.335147 13.357 1.04843 12.8156 1.95936 12.1883C2.81874 11.5953 3.52342 11.1055 3.52342 11.0969C3.52342 11.0797 2.81874 10.5898 1.95077 9.99687C0.971084 9.32656 0.326553 8.82812 0.232022 8.65625C-0.257821 7.83984 0.378116 6.76562 1.34061 6.76562C1.67577 6.76562 1.87343 6.86875 3.23983 7.79687C4.53748 8.67343 4.77811 8.81093 4.82967 8.68203C4.85545 8.59609 4.98436 8.18359 5.12186 7.7625C6.3078 3.93828 9.80545 0.89609 13.8273 0.182809C14.7812 0.0195275 16.6718 0.0195275 17.6343 0.191402C19.9203 0.586715 21.9742 1.66953 23.6328 3.32812C25.764 5.45078 26.8984 8.19218 26.8984 11.1828C26.8984 14.1734 25.8414 16.7945 23.7531 18.9602L22.9539 19.8023L23.4007 19.9828C26.821 21.4008 30.6109 21.5812 34.4093 20.5156C36.8671 19.8281 39.6429 18.4789 41.4476 17.1125C41.9804 16.7 42.4187 16.4766 42.6851 16.4766C42.9687 16.4766 43.5702 16.8375 43.7421 17.1125C43.8968 17.3703 43.914 17.5422 43.914 18.8055C43.914 23.3258 42.582 28.0437 40.3304 31.5156C39.5999 32.6328 39.1531 33.1914 38.1132 34.257C36.5835 35.8383 35.1484 36.8695 33.1546 37.832C31.264 38.743 29.3648 39.3102 26.9414 39.6969C25.7812 39.8773 25.4804 39.8859 18.8632 39.9031C13.2343 39.9203 11.8679 39.9031 11.3265 39.8086ZM12.3148 11.3117C12.4179 11.2516 12.6242 11.1055 12.7789 10.9766C13.3633 10.4609 14.2398 10.418 14.8758 10.8562C15.632 11.3805 15.6836 11.4062 16.1218 11.4062C17.1273 11.4062 17.7461 10.3922 17.3078 9.46406C16.9984 8.81953 15.8468 8.13203 14.6953 7.90859C14.1023 7.78828 13.8789 7.77968 13.3031 7.86562C12.1687 8.0289 10.8711 8.76797 10.5187 9.44687C10.2094 10.0398 10.4242 10.8305 11 11.2086C11.3179 11.432 11.9968 11.475 12.3148 11.3117Z" fill="#F5E15E"/>
</svg>
